<svg xmlns="http://www.w3.org/2000/svg" xmlns:xlink="http://www.w3.org/1999/xlink" width="10px" height="17px" viewBox="0 0 10 17" version="1.1">
    <title>arrow-down</title>
    <g id="Page-1" stroke="none" stroke-width="1" fill="none" fill-rule="evenodd">
        <g id="arrow-down" fill="#000000" fill-rule="nonzero">
            <path d="M7.558809,4.109982 L6.857568,4.7241539 C6.687743,4.8728933 6.69053,5.1148256 6.86375,5.2605295 L9.74782,7.6863615 L-2.571238,7.6863615 C-2.808022,7.6863615 -3,7.854503 -3,8.0618869 L-3,8.9381131 C-3,9.145497 -2.808022,9.3136385 -2.571238,9.3136385 L9.74782,9.3136385 L6.863785,11.7394705 C6.69053,11.8851744 6.687743,12.1271067 6.857604,12.2758461 L7.558845,12.890018 C7.726277,13.0366607 7.997755,13.0366607 8.165222,12.890018 L12.874426,8.7655278 C13.041858,8.6188851 13.041858,8.3811149 12.874426,8.2344409 L8.165151,4.109982 C7.997719,3.9633393 7.726241,3.9633393 7.558809,4.109982 Z" id="Arrow" transform="translate(5.000000, 8.500000) rotate(90.000000) translate(-5.000000, -8.500000) "/>
        </g>
    </g>
</svg>